# xmcd CD database file
# Copyright (C) 1998 Ti Kan
# 
# Track frame offsets:
#     150
#     16727
#     33270
#     54260
#     75922
#     92580
#     109842
#     125847
#     154262
#     169505
#     183805
#     195617
# 
# Disc length: 2841 seconds
# 
# Revision: 1
# Processed by: cddbd v1.4b41PL1 Copyright (c) Steve Scherf et al.
# Submitted via: DiscPlay 4.0.4
# 
DISCID=840b170c
DTITLE=Gary Vincent and The Swamp Honkys - Show Me Yours
DYEAR=1900
DGENRE=
TTITLE0=Why'd Ya Pick On Me
TTITLE1=Outta My Head
TTITLE2=Makin' Time With You
TTITLE3=Show Me Yours
TTITLE4=If You're Ready To Rock
TTITLE5=This Hole I'm In
TTITLE6=Loreen
TTITLE7=Love Me Or Leave Me
TTITLE8=I Must Be Stupid
TTITLE9=Heart Of Steel
TTITLE10=Never Enough
TTITLE11=Don't Touch The Lizard
EXTD=
EXTT0=
EXTT1=
EXTT2=
EXTT3=
EXTT4=
EXTT5=
EXTT6=
EXTT7=
EXTT8=
EXTT9=
EXTT10=
EXTT11=
PLAYORDER=
